<?xml version="1.0" encoding="UTF-8" standalone="no"?>
<svg width="239px" height="239px" viewBox="0 0 239 239" version="1.1" xmlns="http://www.w3.org/2000/svg" xmlns:xlink="http://www.w3.org/1999/xlink" xmlns:sketch="http://www.bohemiancoding.com/sketch/ns">
    <title>active-listing</title>
    <description>Created with Sketch (http://www.bohemiancoding.com/sketch)</description>
    <defs></defs>
    <g id="Page 1" stroke="none" stroke-width="1" fill="none" fill-rule="evenodd">
        <path d="M224.0625,239 L14.9375,239 C6.68826562,239 0,232.319203 0,224.0625 L0,14.9375 C0,6.68079687 6.68826562,0 14.9375,0 L164.3125,0 L134.4375,29.875 L29.875,29.875 L29.875,209.125 L209.125,209.125 L209.125,104.5625 L239,74.6875 L239,224.0625 C239,232.319203 232.311734,239 224.0625,239 L224.0625,239 Z M57,182 L57,136.5 L193.5,0 L208.666667,0 L239,30.3333333 L239,45.5 L102.5,182 L57,182 L57,182 Z M122.923077,125 L205,42.9230769 L190.076923,28 L108,110.076923 L122.923077,125 L122.923077,125 Z M88,137 L74,151 L74,165 L88,165 L102,151 L88,137 L88,137 Z M88,137" id="Shape" fill="#FFFFFF"></path>
    </g>
</svg>