<?xml version="1.0" encoding="UTF-8" standalone="no"?>
<svg width="227px" height="221px" viewBox="0 0 227 221" version="1.1" xmlns="http://www.w3.org/2000/svg" xmlns:xlink="http://www.w3.org/1999/xlink" xmlns:sketch="http://www.bohemiancoding.com/sketch/ns">
    <title>active-profile</title>
    <description>Created with Sketch (http://www.bohemiancoding.com/sketch)</description>
    <defs></defs>
    <g id="Page 1" stroke="none" stroke-width="1" fill="none" fill-rule="evenodd">
        <path d="M135.848353,138.744516 C135.848353,138.744516 152.307879,122.293317 155.89529,100.171319 C165.545324,100.171319 171.5061,76.6527245 161.854547,68.3780139 C162.257371,59.6674421 174.258475,0 113.5,0 C52.7415246,0 64.7431362,59.6674421 65.1449464,68.3780139 C55.4938996,76.6527245 61.4536629,100.171319 71.1042031,100.171319 C74.6911071,122.293317 91.1511406,138.744516 91.1511406,138.744516 C91.1511406,138.744516 91.0234531,154.295345 85.4219241,155.195204 C67.3784643,158.093782 0,188.098113 0,221 L113.5,221 L227,221 C227,188.098113 159.621536,158.093782 141.577569,155.195204 C135.97604,154.295345 135.848353,138.744516 135.848353,138.744516 Z M135.848353,138.744516" id="Shape copy" fill="#FFFFFF"></path>
    </g>
</svg>