<?xml version="1.0" encoding="UTF-8" standalone="no"?>
<svg width="161px" height="166px" viewBox="0 0 161 166" version="1.1" xmlns="http://www.w3.org/2000/svg" xmlns:xlink="http://www.w3.org/1999/xlink" xmlns:sketch="http://www.bohemiancoding.com/sketch/ns">
    <title>hover-mailbox</title>
    <description>Created with Sketch (http://www.bohemiancoding.com/sketch)</description>
    <defs></defs>
    <g id="Page 1" stroke="none" stroke-width="1" fill="none" fill-rule="evenodd">
        <path d="M130.8125,166 L30.1875,166 C13.5139375,166 0,151.638645 0,133.919534 L0,101.839068 L34.6653125,65 C35.8929375,67.1493912 37.31175,69.202541 39.0324375,71.0418211 L48.2496875,80.8370566 L20.125,112.532557 L50.3125,112.532557 L50.3125,123.226046 C50.3125,129.139545 54.8205,133.919534 60.375,133.919534 L100.625,133.919534 C106.189562,133.919534 110.6875,129.139545 110.6875,123.226046 L110.6875,112.532557 L140.875,112.532557 L112.750313,80.8370566 L121.967562,71.0418211 C123.698312,69.202541 125.107062,67.1493912 126.34475,65.0106935 L161,101.839068 L161,133.919534 C161,151.638645 147.486062,166 130.8125,166 L130.8125,166 Z M87.0697628,72.2527816 C85.1195257,74.0811351 82.5592143,75 79.9989029,75 C77.4385915,75 74.8782801,74.0811351 72.9280429,72.2527816 L52.9256101,53.5004376 C50.0752635,50.8188524 49.2151589,46.7870984 50.7553462,43.2804101 C52.2955335,39.7830979 55.9559787,37.5046881 59.9964701,37.5046881 L69.9976865,37.5046881 L69.9976865,9.37617202 C69.9976865,4.20052507 74.4782314,0 79.9989029,0 C85.5295755,0 90.0001192,4.20052507 90.0001192,9.37617202 L90.0001192,37.5046881 L100.001336,37.5046881 C104.041827,37.5046881 107.702272,39.7924741 109.24246,43.2897862 C110.782647,46.7964746 109.932543,50.8188524 107.072196,53.5004376 L87.0697628,72.2527816 L87.0697628,72.2527816 Z M87.0697628,72.2527816" id="Shape copy" fill="#D54A2D"></path>
    </g>
</svg>