<?xml version="1.0" encoding="UTF-8" standalone="no"?>
<svg width="30px" height="30px" viewBox="0 0 218 219" version="1.1" xmlns="http://www.w3.org/2000/svg" xmlns:xlink="http://www.w3.org/1999/xlink" xmlns:sketch="http://www.bohemiancoding.com/sketch/ns">
    <g id="Page 1" stroke="none" stroke-width="1" fill="none" fill-rule="evenodd">
        <path d="M206.023625,107.351375 L110.648625,11.976375 C102.664375,3.992125 92.214,0 81.75,0 L0,0 L0,81.75 C0,92.214 3.992125,102.664375 11.976375,110.648625 L107.351375,206.023625 C123.319875,221.992125 149.180125,221.992125 165.148625,206.023625 L206.023625,165.148625 C221.992125,149.180125 221.992125,123.319875 206.023625,107.351375 L206.023625,107.351375 Z M179.041207,138.542051 L138.542051,179.041207 C133.263661,184.319598 124.731839,184.319598 119.453449,179.041207 L24.9554176,84.5431762 C22.3229724,81.910731 21,78.454803 21,74.998875 L21,21 L74.998875,21 C78.454803,21 81.910731,22.3229724 84.5431762,24.9554176 L179.041207,119.453449 C184.319598,124.731839 184.319598,133.263661 179.041207,138.542051 L179.041207,138.542051 Z M52.5,42 C46.6935,42 42,46.6935 42,52.5 C42,58.3065 46.6935,63 52.5,63 C58.3065,63 63,58.3065 63,52.5 C63,46.6935 58.3065,42 52.5,42 L52.5,42 Z M52.5,42" id="Shape" fill="#4A4A4A"></path>
    </g>
</svg>